<!--?xml version="1.0" encoding="utf-8"?-->
<!-- Generator: Adobe Illustrator 18.1.1, SVG Export Plug-In . SVG Version: 6.00 Build 0)  -->

<svg version="1.1" id="_x32_" xmlns="http://www.w3.org/2000/svg" xmlns:xlink="http://www.w3.org/1999/xlink" x="0px" y="0px" viewBox="0 0 512 512" style="enable-background:new 0 0 512 512;" xml:space="preserve">
<style type="text/css">
	.st0{fill:#4B4B4B;}
</style>
<g>
	<path class="st0" d="M493.045,18.966C480.897,6.786,464.42-0.012,447.326,0c-1.199,0-2.322,0.045-3.342,0.1l1.189-0.09
		L280.817,8.412c-15.995,0.808-31.126,7.537-42.433,18.844L18.955,246.696c-12.607,12.55-18.966,29.218-18.944,45.708
		c-0.022,16.476,6.338,33.122,18.911,45.707l0.033,0.01L173.89,493.077c12.596,12.552,29.208,18.934,45.707,18.923
		c16.488,0.012,33.111-6.348,45.696-18.923l219.452-219.462c11.305-11.317,18.036-26.437,18.865-42.41l8.289-163.244
		c0.056-1.122,0.09-2.222,0.09-3.288C512.001,47.569,505.215,31.092,493.045,18.966z M478.238,66.234l-8.3,163.222
		c-0.414,7.672-3.634,14.906-9.029,20.302L241.458,469.209c-6.068,6.068-13.896,9.052-21.861,9.063
		c-7.952-0.033-15.793-2.995-21.872-9.063L42.802,314.276c-6.08-6.079-9.062-13.921-9.074-21.872
		c0.012-7.986,2.994-15.804,9.062-21.862L262.243,51.091c5.395-5.406,12.596-8.614,20.279-9.019l163.29-8.311l1.514-0.045
		c8.178,0,16.04,3.241,21.884,9.085c5.832,5.822,9.04,13.696,9.063,21.872L478.238,66.234z"></path>
	<path class="st0" d="M350.741,105.648c-15.378,15.388-15.367,40.256,0,55.612c15.367,15.378,40.267,15.4,55.634,0.023
		c15.367-15.367,15.367-40.246-0.012-55.634C390.986,90.281,366.108,90.281,350.741,105.648z"></path>
	<polygon class="st0" points="212.913,427.787 226.114,440.988 289.453,377.626 276.263,364.436 	"></polygon>
	<polygon class="st0" points="244.756,332.906 181.382,396.268 200.137,415.011 263.487,351.671 	"></polygon>
	<polygon class="st0" points="220.158,308.342 156.819,371.693 167.227,382.113 230.577,318.762 	"></polygon>
	<polygon class="st0" points="158.511,246.696 95.161,310.035 113.893,328.789 177.255,265.427 	"></polygon>
	<polygon class="st0" points="190.042,278.214 126.68,341.576 139.87,354.744 203.221,291.394 	"></polygon>
	<polygon class="st0" points="132.534,220.719 69.195,284.069 82.374,297.26 145.747,233.92 	"></polygon>
</g>
</svg>
